# xmcd
#
# Track frame offsets: 
#        150
#        17797
#        38634
#        60228
#        74963
#        95431
#        119964
#        140358
#        166259
#        180086
#        197711
#        214170
#
# Disc length: 3092 seconds
#
# Revision: 1
# Processed by: cddbd v1.5.2PL0 Copyright (c) Steve Scherf et al.
# Submitted via: ExactAudioCopy v0.99pb4
#
DISCID=ab0c120c
DTITLE=Gene Taylor - Live 605 Boogie
DYEAR=2008
DGENRE=Blues
TTITLE0=605 Boogie
TTITLE1=Sugarbee
TTITLE2=Don't You Lie to Me
TTITLE3=Looped
TTITLE4=Mardi Gras in New Orleans
TTITLE5=Before You Accuse Me
TTITLE6=Earl's Guitar Rumba
TTITLE7=That's All Right
TTITLE8=Down the Road Apiece
TTITLE9=What Am I Living For?
TTITLE10=Blue Moon of Kentucky
TTITLE11=Lights Out
EXTD=
EXTT0=
EXTT1=
EXTT2=
EXTT3=
EXTT4=
EXTT5=
EXTT6=
EXTT7=
EXTT8=
EXTT9=
EXTT10=
EXTT11=
PLAYORDER=
